<svg xmlns="http://www.w3.org/2000/svg" version="1.1" xmlns:xlink="http://www.w3.org/1999/xlink" xmlns:svgjs="http://svgjs.dev/svgjs" width="765" height="625" viewBox="0 0 382.86000366210936 300" class="svg-animations " style="background-color: rgb(0, 0, 0);"><svg viewBox="0 0 118 138.98599243164062" width="100" height="100" x="31.905000305175776" y="100" style="fill: rgb(255, 255, 255);"><svg width="118" height="134" viewBox="0 0 118 134" xmlns="http://www.w3.org/2000/svg">
	<path d="M94.1907 53.7204L80.6563 90.9538C79.9454 92.9226 78.0675 94.2486 75.9615 94.2486L23.2056 94.3021C21.0996 94.3021 19.2351 95.6147 18.5108 97.5835L7.67256 127.29C6.50557 130.491 8.81272 133.973 12.2198 133.986C12.2466 133.986 12.26 133.986 12.2869 133.986H62.9368V133.946C63.5271 133.96 64.1038 133.986 64.7075 133.986C94.137 133.986 118 112.437 118 85.851C118 72.4711 111.964 60.3769 102.212 51.6579C99.583 49.3274 95.3979 50.4123 94.1907 53.7204Z"/>
	<path d="M43.192 40.4478L94.5529 40.3942C96.6589 40.3942 98.5234 39.0817 99.2477 37.1128L110.327 6.69665C111.494 3.49565 109.187 0.0133933 105.78 0C105.753 0 105.74 0 105.713 0H55.0631V0.0401799C54.4729 0.0267866 53.8827 0 53.2925 0C23.8629 0 0 21.5498 0 48.1355C0 62.0244 6.51904 74.5337 16.9549 83.3197C19.6108 85.5564 23.7019 84.4716 24.8958 81.2036L38.4972 43.7425C39.2081 41.7737 41.0861 40.4612 43.192 40.4478Z"/>
	</svg></svg><svg x="141.90500030517578" y="130.57499980926514" style="fill: rgb(255, 255, 255);"><path d="M15.20 22.93L12.70 22.93Q12.38 22.16 11.86 20.98Q11.33 19.79 10.72 18.42Q10.11 17.04 9.42 15.58Q8.74 14.13 8.13 12.83Q7.52 11.54 6.99 10.51Q6.46 9.49 6.14 8.94L6.14 8.94Q5.79 12.72 5.57 17.12Q5.34 21.52 5.18 26L5.18 26L2.14 26Q2.27 23.12 2.43 20.19Q2.59 17.26 2.80 14.43Q3.01 11.60 3.25 8.91Q3.49 6.22 3.78 3.82L3.78 3.82L6.50 3.82Q7.36 5.23 8.35 7.15Q9.34 9.07 10.34 11.17Q11.33 13.26 12.26 15.36Q13.18 17.46 13.95 19.18L13.95 19.18Q14.72 17.46 15.65 15.36Q16.58 13.26 17.57 11.17Q18.56 9.07 19.55 7.15Q20.54 5.23 21.41 3.82L21.41 3.82L24.13 3.82Q25.22 14.54 25.76 26L25.76 26L22.72 26Q22.56 21.52 22.34 17.12Q22.11 12.72 21.76 8.94L21.76 8.94Q21.44 9.49 20.91 10.51Q20.38 11.54 19.78 12.83Q19.17 14.13 18.48 15.58Q17.79 17.04 17.18 18.42Q16.58 19.79 16.05 20.98Q15.52 22.16 15.20 22.93L15.20 22.93ZM27.94 31.50L28.48 29.10Q28.83 29.26 29.39 29.41Q29.95 29.55 30.50 29.55L30.50 29.55Q32.26 29.55 33.25 28.77Q34.24 27.98 35.04 26.22L35.04 26.22Q33.02 22.38 31.28 18.08Q29.54 13.78 28.38 9.36L28.38 9.36L31.58 9.36Q31.94 10.80 32.43 12.46Q32.93 14.13 33.54 15.89Q34.14 17.65 34.85 19.41Q35.55 21.17 36.32 22.80L36.32 22.80Q37.54 19.44 38.43 16.14Q39.33 12.85 40.13 9.36L40.13 9.36L43.20 9.36Q42.05 14.06 40.64 18.40Q39.23 22.74 37.60 26.51L37.60 26.51Q36.96 27.95 36.27 28.99Q35.58 30.03 34.75 30.70Q33.92 31.38 32.88 31.70Q31.84 32.02 30.53 32.02L30.53 32.02Q30.18 32.02 29.79 31.97Q29.41 31.92 29.04 31.84Q28.67 31.76 28.37 31.66Q28.06 31.57 27.94 31.50L27.94 31.50ZM49.31 1.17L49.31 10.10Q49.86 9.74 50.96 9.36Q52.06 8.98 53.50 8.98L53.50 8.98Q55.30 8.98 56.69 9.62Q58.08 10.26 59.04 11.41Q60 12.56 60.50 14.16Q60.99 15.76 60.99 17.68L60.99 17.68Q60.99 19.70 60.40 21.31Q59.81 22.93 58.72 24.05Q57.63 25.17 56.10 25.78Q54.56 26.38 52.64 26.38L52.64 26.38Q50.56 26.38 48.96 26.10Q47.36 25.81 46.34 25.52L46.34 25.52L46.34 1.68L49.31 1.17ZM49.31 12.88L49.31 23.41Q49.76 23.54 50.58 23.65Q51.39 23.76 52.61 23.76L52.61 23.76Q55.01 23.76 56.45 22.18Q57.89 20.59 57.89 17.68L57.89 17.68Q57.89 16.40 57.63 15.28Q57.38 14.16 56.80 13.34Q56.22 12.53 55.31 12.06Q54.40 11.60 53.12 11.60L53.12 11.60Q51.90 11.60 50.88 12.02Q49.86 12.43 49.31 12.88L49.31 12.88ZM64.26 17.71L64.26 17.71Q64.26 15.50 64.90 13.86Q65.54 12.21 66.59 11.12Q67.65 10.03 69.02 9.49Q70.40 8.94 71.84 8.94L71.84 8.94Q75.20 8.94 76.99 11.04Q78.78 13.14 78.78 17.42L78.78 17.42Q78.78 17.62 78.78 17.92Q78.78 18.22 78.75 18.48L78.75 18.48L67.36 18.48Q67.55 21.07 68.86 22.42Q70.18 23.76 72.96 23.76L72.96 23.76Q74.53 23.76 75.60 23.49Q76.67 23.22 77.22 22.96L77.22 22.96L77.63 25.46Q77.09 25.74 75.73 26.06Q74.37 26.38 72.64 26.38L72.64 26.38Q70.46 26.38 68.88 25.73Q67.30 25.07 66.27 23.92Q65.25 22.77 64.75 21.18Q64.26 19.60 64.26 17.71ZM67.42 16.08L75.68 16.08Q75.71 14.06 74.67 12.77Q73.63 11.47 71.81 11.47L71.81 11.47Q70.78 11.47 70 11.87Q69.22 12.27 68.67 12.91Q68.13 13.55 67.82 14.38Q67.52 15.22 67.42 16.08L67.42 16.08ZM85.86 4.21L85.86 9.36L92.16 9.36L92.16 11.86L85.86 11.86L85.86 19.54Q85.86 20.78 86.05 21.60Q86.24 22.42 86.62 22.88Q87.01 23.34 87.58 23.54Q88.16 23.73 88.93 23.73L88.93 23.73Q90.27 23.73 91.09 23.42Q91.90 23.12 92.22 22.99L92.22 22.99L92.80 25.46Q92.35 25.68 91.23 26.02Q90.11 26.35 88.67 26.35L88.67 26.35Q86.98 26.35 85.87 25.92Q84.77 25.49 84.10 24.62Q83.42 23.76 83.15 22.50Q82.88 21.23 82.88 19.57L82.88 19.57L82.88 4.72L85.86 4.21ZM98.91 1.17L98.91 10.10Q99.46 9.74 100.56 9.36Q101.66 8.98 103.10 8.98L103.10 8.98Q104.90 8.98 106.29 9.62Q107.68 10.26 108.64 11.41Q109.60 12.56 110.10 14.16Q110.59 15.76 110.59 17.68L110.59 17.68Q110.59 19.70 110 21.31Q109.41 22.93 108.32 24.05Q107.23 25.17 105.70 25.78Q104.16 26.38 102.24 26.38L102.24 26.38Q100.16 26.38 98.56 26.10Q96.96 25.81 95.94 25.52L95.94 25.52L95.94 1.68L98.91 1.17ZM98.91 12.88L98.91 23.41Q99.36 23.54 100.18 23.65Q100.99 23.76 102.21 23.76L102.21 23.76Q104.61 23.76 106.05 22.18Q107.49 20.59 107.49 17.68L107.49 17.68Q107.49 16.40 107.23 15.28Q106.98 14.16 106.40 13.34Q105.82 12.53 104.91 12.06Q104 11.60 102.72 11.60L102.72 11.60Q101.50 11.60 100.48 12.02Q99.46 12.43 98.91 12.88L98.91 12.88ZM128.03 9.36L128.03 25.52Q127.01 25.78 125.33 26.06Q123.65 26.35 121.44 26.35L121.44 26.35Q119.52 26.35 118.21 25.79Q116.90 25.23 116.10 24.21Q115.30 23.18 114.94 21.79Q114.59 20.40 114.59 18.70L114.59 18.70L114.59 9.36L117.57 9.36L117.57 18.06Q117.57 21.10 118.53 22.42Q119.49 23.73 121.76 23.73L121.76 23.73Q122.24 23.73 122.75 23.70Q123.26 23.66 123.71 23.62Q124.16 23.57 124.53 23.52Q124.90 23.47 125.06 23.41L125.06 23.41L125.06 9.36L128.03 9.36ZM136.13 9.36L136.13 26L133.15 26L133.15 9.36L136.13 9.36ZM134.62 6.35L134.62 6.35Q133.82 6.35 133.26 5.82Q132.70 5.30 132.70 4.40L132.70 4.40Q132.70 3.50 133.26 2.98Q133.82 2.45 134.62 2.45L134.62 2.45Q135.42 2.45 135.98 2.98Q136.54 3.50 136.54 4.40L136.54 4.40Q136.54 5.30 135.98 5.82Q135.42 6.35 134.62 6.35ZM146.66 23.82L146.24 26.32Q143.49 26.26 142.34 25.14Q141.18 24.02 141.18 21.65L141.18 21.65L141.18 1.68L144.16 1.17L144.16 21.17Q144.16 21.90 144.29 22.38Q144.42 22.86 144.70 23.15Q144.99 23.44 145.47 23.58Q145.95 23.73 146.66 23.82L146.66 23.82ZM160.74 23.41L160.74 12.88Q160.19 12.43 159.17 12.02Q158.14 11.60 156.93 11.60L156.93 11.60Q155.65 11.60 154.74 12.06Q153.82 12.53 153.25 13.34Q152.67 14.16 152.42 15.28Q152.16 16.40 152.16 17.68L152.16 17.68Q152.16 20.59 153.60 22.18Q155.04 23.76 157.44 23.76L157.44 23.76Q158.66 23.76 159.47 23.65Q160.29 23.54 160.74 23.41L160.74 23.41ZM160.74 10.10L160.74 1.68L163.71 1.17L163.71 25.52Q162.69 25.81 161.09 26.10Q159.49 26.38 157.41 26.38L157.41 26.38Q155.49 26.38 153.95 25.78Q152.42 25.17 151.33 24.05Q150.24 22.93 149.65 21.31Q149.06 19.70 149.06 17.68L149.06 17.68Q149.06 15.76 149.55 14.16Q150.05 12.56 151.01 11.41Q151.97 10.26 153.36 9.62Q154.75 8.98 156.54 8.98L156.54 8.98Q157.98 8.98 159.09 9.36Q160.19 9.74 160.74 10.10L160.74 10.10ZM167.90 17.71L167.90 17.71Q167.90 15.50 168.54 13.86Q169.18 12.21 170.24 11.12Q171.30 10.03 172.67 9.49Q174.05 8.94 175.49 8.94L175.49 8.94Q178.85 8.94 180.64 11.04Q182.43 13.14 182.43 17.42L182.43 17.42Q182.43 17.62 182.43 17.92Q182.43 18.22 182.40 18.48L182.40 18.48L171.01 18.48Q171.20 21.07 172.51 22.42Q173.82 23.76 176.61 23.76L176.61 23.76Q178.18 23.76 179.25 23.49Q180.32 23.22 180.86 22.96L180.86 22.96L181.28 25.46Q180.74 25.74 179.38 26.06Q178.02 26.38 176.29 26.38L176.29 26.38Q174.11 26.38 172.53 25.73Q170.94 25.07 169.92 23.92Q168.90 22.77 168.40 21.18Q167.90 19.60 167.90 17.71ZM171.07 16.08L179.33 16.08Q179.36 14.06 178.32 12.77Q177.28 11.47 175.46 11.47L175.46 11.47Q174.43 11.47 173.65 11.87Q172.86 12.27 172.32 12.91Q171.78 13.55 171.47 14.38Q171.17 15.22 171.07 16.08L171.07 16.08ZM192.86 9.01L192.86 9.01Q193.25 9.01 193.74 9.06Q194.24 9.10 194.72 9.18Q195.20 9.26 195.60 9.34Q196 9.42 196.19 9.49L196.19 9.49L195.68 12.08Q195.33 11.95 194.51 11.78Q193.70 11.60 192.42 11.60L192.42 11.60Q191.58 11.60 190.77 11.78Q189.95 11.95 189.70 12.02L189.70 12.02L189.70 26L186.72 26L186.72 10.06Q187.78 9.68 189.34 9.34Q190.91 9.01 192.86 9.01Z"/></svg><text fill="#ffffff" font-family="Verdana" font-size="16px" x="241.43000183105468" y="169.42500019073486"><tspan dy="0" x="241.43000183105468"></tspan></text></svg>